<svg width="63" height="56" viewBox="0 0 63 56" fill="none" xmlns="http://www.w3.org/2000/svg">
<circle cx="28" cy="28" r="28" fill="url(#paint0_radial_53_58)"/>
<circle cx="35" cy="28" r="28" fill="#131313"/>
<path d="M23.9873 12.5379L24.2917 16.3805L24.1395 15.7718C24.6468 14.6051 25.4711 13.6793 26.6125 12.9945C27.7538 12.2843 29.0727 11.9292 30.5692 11.9292C32.0656 11.9292 33.2831 12.3731 34.2215 13.2608C35.1853 14.1231 35.6799 15.2518 35.7053 16.6468V28.2887H32.129V17.9023C32.1037 17.0399 31.85 16.3425 31.3681 15.8098C30.9116 15.2518 30.1887 14.9728 29.1996 14.9728C28.2865 14.9728 27.4622 15.2265 26.7266 15.7337C25.9911 16.241 25.4077 16.9385 24.9765 17.8262C24.5707 18.7139 24.3678 19.7412 24.3678 20.9079V28.2887H20.8296V12.5379H23.9873Z" fill="white"/>
<path d="M41.4073 36.3971C40.2152 36.3971 39.0612 36.1181 37.9452 35.5601C36.8546 35.0021 36.0049 34.2539 35.3962 33.3154L35.6244 32.2121V43.5876H32.1243V20.0376H35.1679L35.6625 24.0704L35.282 22.9671C36.0429 22.0033 37.0067 21.2043 38.1735 20.5702C39.3402 19.9362 40.6464 19.6191 42.0921 19.6191C43.5632 19.6191 44.8821 19.9742 46.0488 20.6844C47.2409 21.3946 48.1794 22.3837 48.8642 23.6519C49.549 24.9201 49.8914 26.4039 49.8914 28.1032C49.8914 29.8026 49.5236 31.2736 48.7881 32.5165C48.0526 33.7593 47.038 34.7231 45.7445 35.4079C44.4763 36.0674 43.0306 36.3971 41.4073 36.3971ZM40.7225 33.5817C41.737 33.5817 42.6628 33.3535 43.4998 32.8969C44.3622 32.415 45.047 31.7682 45.5543 30.9566C46.0615 30.1196 46.3152 29.1812 46.3152 28.1413C46.3152 27.076 46.0742 26.1375 45.5923 25.3259C45.1104 24.4889 44.4636 23.8295 43.652 23.3475C42.8657 22.8656 41.978 22.6247 40.9888 22.6247C40.0757 22.6247 39.2514 22.8022 38.5159 23.1573C37.7803 23.5124 37.1716 24.007 36.6897 24.6411C36.2078 25.2498 35.8654 25.96 35.6625 26.7716V29.3967C35.7893 30.2084 36.0937 30.9312 36.5756 31.5653C37.0575 32.1994 37.6535 32.694 38.3637 33.0491C39.0992 33.4042 39.8855 33.5817 40.7225 33.5817Z" fill="white"/>
<defs>
<radialGradient id="paint0_radial_53_58" cx="0" cy="0" r="1" gradientUnits="userSpaceOnUse" gradientTransform="translate(28 28) rotate(90) scale(28)">
<stop stop-color="#FF5858"/>
<stop offset="1" stop-color="#FF5858" stop-opacity="0.56"/>
</radialGradient>
</defs>
</svg>
