<svg width="96" height="96" fill="none" xmlns="http://www.w3.org/2000/svg">
    <path d="M66.418 60.61a3.338 3.338 0 01-3.335-3.329c0-1.84 1.492-3.33 3.335-3.33a3.337 3.337 0 013.335 3.33c0 1.84-1.502 3.33-3.335 3.33zm-36.826 0a3.338 3.338 0 01-3.335-3.329c0-1.84 1.493-3.33 3.335-3.33a3.337 3.337 0 013.335 3.33c0 1.84-1.492 3.33-3.334 3.33zM67.61 40.583l6.66-11.509c.381-.66.15-1.51-.51-1.89a1.391 1.391 0 00-1.893.51l-6.74 11.66c-5.158-2.35-10.947-3.66-17.126-3.66-6.18 0-11.968 1.31-17.126 3.66l-6.74-11.66a1.391 1.391 0 00-1.893-.51 1.387 1.387 0 00-.51 1.89l6.66 11.51C16.953 46.791 9.14 58.35 8 72h80c-1.142-13.659-8.953-25.218-20.39-31.418z" fill="#fff" />
</svg>