<svg width="123" height="123" viewBox="0 0 123 123" fill="none" xmlns="http://www.w3.org/2000/svg">
<path d="M94.9924 121.656C93.5753 122.245 92.0294 122.456 90.5063 122.268C71.4213 119.719 53.2711 112.459 37.6931 101.142C21.6998 89.4804 8.98716 73.8881 0.784991 55.8739C-0.522189 53.0037 -0.179173 49.6516 1.6822 47.1057C25.9761 13.9838 66.0574 -3.71095 106.901 0.654467C110.116 0.986139 112.882 3.07587 114.079 6.07853C121.623 24.8894 124.057 45.3614 121.134 65.4169C118.285 84.8791 110.523 103.294 98.5813 118.923C97.6359 120.124 96.401 121.064 94.9924 121.656Z" fill="url(#paint0_linear_196_2488)"/>
<path d="M94.9924 81.2813C94.6724 81.2524 94.3573 81.184 94.0544 81.0773C91.589 80.2122 90.2918 77.5123 91.1569 75.047C91.1576 75.0452 91.1582 75.0434 91.1588 75.0415C92.6678 70.8818 91.2812 68.965 90.8326 68.3124C87.1621 63.2146 74.8051 62.7253 69.6665 62.7661C57.0647 62.8884 48.5819 59.7889 44.5445 53.59C40.507 47.3911 42.0568 40.7843 43.4841 37.5625C44.6882 35.2438 47.544 34.3402 49.8627 35.5443C51.9693 36.6382 52.9391 39.1239 52.13 41.3553C52.0892 41.5184 50.4987 45.5152 52.4563 48.4514C54.4138 51.3878 60.6943 53.3861 69.5849 53.3453C84.2258 53.2229 93.932 56.4448 98.5404 62.8476C101.558 67.089 102.129 72.4315 100.09 78.1818C99.3517 80.3018 97.2144 81.6014 94.9924 81.2813Z" fill="white"/>
<path opacity="0.7" d="M57.3094 31.8531C61.4929 30.4232 65.9 29.7601 70.319 29.8955C80.1068 30.1809 85.8979 33.4843 92.0153 41.4777C92.6452 42.2963 93.5383 42.8725 94.5438 43.1089C96.9385 43.6498 99.3183 42.1467 99.859 39.752C100.147 38.4762 99.8587 37.1382 99.0706 36.0944C89.3236 23.3703 79.2095 21.2904 70.5637 21.0457C64.9587 20.8551 59.3684 21.7269 54.0876 23.615C51.8242 24.505 50.7105 27.061 51.5998 29.3245C52.491 31.5871 55.035 32.7138 57.3094 31.8531Z" fill="white"/>
<path opacity="0.7" d="M86.0611 84.0953C81.8722 85.4994 77.4672 86.1483 73.0515 86.0121C63.2637 85.7266 55.2295 81.526 49.1122 73.5327C47.5085 71.6737 44.7016 71.4668 42.8426 73.0704C41.1395 74.5395 40.8022 77.0493 42.0568 78.916C49.0714 88.092 57.4726 92.211 64.8134 93.8831C67.4367 94.4859 70.1156 94.8139 72.8068 94.8619C78.407 95.0304 83.9909 94.1734 89.2829 92.3334C91.5577 91.4437 92.6807 88.8784 91.791 86.6035C90.9013 84.3286 88.336 83.2056 86.0611 84.0953Z" fill="white"/>
<defs>
<linearGradient id="paint0_linear_196_2488" x1="-3.50575e-05" y1="61.1674" x2="122.335" y2="61.1674" gradientUnits="userSpaceOnUse">
<stop stop-color="#007C42"/>
<stop offset="1" stop-color="#6CCE7A"/>
</linearGradient>
</defs>
</svg>
