<svg width="52" height="52" viewBox="0 0 52 52" fill="none" xmlns="http://www.w3.org/2000/svg">
<path fill-rule="evenodd" clip-rule="evenodd" d="M18.7091 12.4766C18.7091 11.6481 19.3807 10.9766 20.2091 10.9766L39.5237 10.9766C39.9215 10.9766 40.3031 11.1346 40.5844 11.4159C40.8657 11.6972 41.0237 12.0787 41.0237 12.4766L41.0237 31.7912C41.0237 32.6196 40.3521 33.2912 39.5237 33.2912C38.6953 33.2912 38.0237 32.6196 38.0237 31.7912L38.0237 16.0979L13.5375 40.5841C12.9517 41.1698 12.002 41.1698 11.4162 40.5841C10.8304 39.9983 10.8304 39.0485 11.4162 38.4627L35.9024 13.9766L20.2091 13.9766C19.3807 13.9766 18.7091 13.305 18.7091 12.4766Z" fill="black"/>
</svg>
