<svg xmlns="http://www.w3.org/2000/svg" width="32" height="32" enable-background="new 0 0 32 32" viewBox="0 0 32 32"><path fill="#263238" d="M4.983 8.875H4.94C2.657 8.875 1 7.361 1 5.275c0-2.089 1.692-3.606 4.023-3.606 2.292 0 3.928 1.476 3.977 3.589C9 7.359 7.311 8.875 4.983 8.875zM5.023 2.669C3.243 2.669 2 3.741 2 5.275c0 1.531 1.209 2.601 2.94 2.601h.043C6.76 7.875 8 6.804 8 5.27 7.963 3.694 6.795 2.669 5.023 2.669zM7.5 29h-5C2.224 29 2 28.776 2 28.5v-18C2 10.224 2.224 10 2.5 10h5C7.776 10 8 10.224 8 10.5v18C8 28.776 7.776 29 7.5 29zM3 28h4V11H3V28zM30.5 29h-6c-.276 0-.5-.224-.5-.5V19c0-1.654-1.346-3-3-3s-3 1.346-3 3v9.5c0 .276-.224.5-.5.5h-6c-.276 0-.5-.224-.5-.5v-18c0-.276.224-.5.5-.5h6c.276 0 .5.224.5.5v3.014c0 .276-.224.5-.5.5s-.5-.224-.5-.5V11h-5v17h5v-9c0-2.206 1.794-4 4-4s4 1.794 4 4v9h5V17.5c0-3.584-2.916-6.5-6.5-6.5-1.384 0-2.722.406-3.871 1.173-.229.152-.54.092-.693-.138s-.092-.54.139-.693C20.388 10.464 21.918 10 23.5 10c4.136 0 7.5 3.364 7.5 7.5v11C31 28.776 30.776 29 30.5 29z"/></svg>