<svg width="146" height="31" viewBox="0 0 146 31" fill="none" xmlns="http://www.w3.org/2000/svg">
<path d="M26.9639 30.476C25.8812 30.476 24.9946 30.1494 24.3039 29.496C23.6132 28.8427 23.2492 28.0027 23.2119 26.976V18.268H26.0959V25.94C26.1332 26.5374 26.3012 27.032 26.5999 27.424C26.9172 27.7974 27.4212 27.9934 28.1119 28.012C28.7466 28.012 29.3066 27.8254 29.7919 27.452C30.2959 27.06 30.6879 26.5374 30.9679 25.884C31.2666 25.212 31.4159 24.4467 31.4159 23.588V18.268H34.2999V30H31.6959L31.4719 27.284L31.5839 27.732C31.3412 28.2547 30.9959 28.7307 30.5479 29.16C30.0999 29.5707 29.5679 29.888 28.9519 30.112C28.3359 30.3547 27.6732 30.476 26.9639 30.476Z" fill="black"/>
<path d="M41.2918 18.268L41.5438 20.956L41.4318 20.592C41.8238 19.752 42.4305 19.08 43.2518 18.576C44.0732 18.0534 45.0438 17.792 46.1638 17.792C47.2652 17.792 48.1705 18.1187 48.8798 18.772C49.6078 19.4254 49.9812 20.2747 49.9998 21.32V30H47.1158V22.328C47.0972 21.7307 46.9198 21.2454 46.5838 20.872C46.2478 20.48 45.7252 20.2747 45.0158 20.256C44.3812 20.256 43.8025 20.452 43.2798 20.844C42.7572 21.2174 42.3465 21.7307 42.0478 22.384C41.7492 23.0374 41.5998 23.7934 41.5998 24.652V30H38.7158V18.268H41.2918Z" fill="black"/>
<path d="M54.4111 30V8.24402H57.2951V30H54.4111ZM60.1511 22.16L65.5271 30H62.1671L58.2471 23.812L60.1511 22.16ZM56.3991 26.388L56.1191 23.616L63.2311 18.016L64.9951 19.556L56.3991 26.388Z" fill="black"/>
<path d="M68.6299 18.268H71.5139V30H68.6299V18.268ZM68.4619 14.068C68.4619 13.62 68.6392 13.2467 68.9939 12.948C69.3485 12.6494 69.7312 12.5 70.1419 12.5C70.5712 12.5 70.9539 12.6494 71.2899 12.948C71.6259 13.2467 71.7939 13.62 71.7939 14.068C71.7939 14.516 71.6259 14.8894 71.2899 15.188C70.9539 15.468 70.5712 15.608 70.1419 15.608C69.7312 15.608 69.3485 15.468 68.9939 15.188C68.6392 14.8894 68.4619 14.516 68.4619 14.068Z" fill="black"/>
<path d="M81.4193 30.28C80.0567 30.28 78.89 30.0187 77.9193 29.496C76.9487 28.9547 76.202 28.2174 75.6793 27.284C75.1567 26.332 74.8953 25.2494 74.8953 24.036C74.8953 22.8787 75.1847 21.8334 75.7633 20.9C76.3607 19.948 77.154 19.192 78.1433 18.632C79.1513 18.072 80.262 17.792 81.4753 17.792C83.0433 17.792 84.3407 18.2494 85.3673 19.164C86.4127 20.0787 87.1127 21.3574 87.4673 23L77.9193 26.304L77.2473 24.624L84.8913 21.88L84.3033 22.244C84.0793 21.6654 83.7247 21.1614 83.2393 20.732C82.754 20.284 82.0913 20.06 81.2513 20.06C80.5793 20.06 79.9727 20.228 79.4313 20.564C78.9087 20.8814 78.4887 21.3294 78.1713 21.908C77.8727 22.468 77.7233 23.1307 77.7233 23.896C77.7233 24.68 77.882 25.3707 78.1993 25.968C78.5353 26.5467 78.9833 27.004 79.5433 27.34C80.122 27.676 80.766 27.844 81.4753 27.844C81.9793 27.844 82.4553 27.7507 82.9033 27.564C83.37 27.3774 83.8087 27.144 84.2193 26.864L85.5353 28.992C84.9193 29.384 84.2473 29.7014 83.5193 29.944C82.81 30.168 82.11 30.28 81.4193 30.28Z" fill="black"/>
<path d="M109.112 30.28C108.011 30.28 107.012 30.056 106.116 29.608C105.22 29.1414 104.511 28.4507 103.988 27.536C103.465 26.6214 103.204 25.492 103.204 24.148C103.204 22.8227 103.475 21.684 104.016 20.732C104.576 19.78 105.304 19.052 106.2 18.548C107.115 18.0254 108.104 17.764 109.168 17.764C110.288 17.764 111.203 18.0067 111.912 18.492C112.64 18.9587 113.209 19.5094 113.62 20.144L113.424 20.592L113.704 18.268H116.364V30H113.48V27.06L113.788 27.76C113.713 27.9094 113.555 28.124 113.312 28.404C113.069 28.6654 112.743 28.9454 112.332 29.244C111.94 29.5427 111.473 29.7947 110.932 30C110.409 30.1867 109.803 30.28 109.112 30.28ZM109.896 27.928C110.512 27.928 111.063 27.816 111.548 27.592C112.033 27.368 112.444 27.0507 112.78 26.64C113.116 26.2294 113.349 25.744 113.48 25.184V22.748C113.331 22.2254 113.079 21.7774 112.724 21.404C112.369 21.012 111.94 20.704 111.436 20.48C110.951 20.256 110.409 20.144 109.812 20.144C109.14 20.144 108.524 20.312 107.964 20.648C107.404 20.9654 106.956 21.4134 106.62 21.992C106.284 22.5707 106.116 23.2427 106.116 24.008C106.116 24.736 106.284 25.3987 106.62 25.996C106.975 26.5934 107.441 27.0694 108.02 27.424C108.599 27.76 109.224 27.928 109.896 27.928Z" fill="black"/>
<path d="M128.062 30.28C126.998 30.28 126.065 30.0654 125.262 29.636C124.478 29.188 123.844 28.628 123.358 27.956L123.666 27.144V30H120.782V8.24402H123.638V20.816L123.582 19.78C124.03 19.1827 124.684 18.6974 125.542 18.324C126.401 17.9507 127.362 17.764 128.426 17.764C129.472 17.764 130.424 18.016 131.282 18.52C132.16 19.024 132.85 19.7427 133.354 20.676C133.877 21.5907 134.138 22.6827 134.138 23.952C134.138 25.2587 133.858 26.388 133.298 27.34C132.738 28.292 131.992 29.02 131.058 29.524C130.144 30.028 129.145 30.28 128.062 30.28ZM127.446 27.844C128.156 27.844 128.79 27.676 129.35 27.34C129.929 27.004 130.386 26.5374 130.722 25.94C131.058 25.3427 131.226 24.6707 131.226 23.924C131.226 23.196 131.058 22.5427 130.722 21.964C130.386 21.3854 129.929 20.928 129.35 20.592C128.79 20.2374 128.156 20.06 127.446 20.06C126.83 20.06 126.261 20.172 125.738 20.396C125.216 20.62 124.777 20.928 124.422 21.32C124.068 21.712 123.816 22.1694 123.666 22.692V25.184C123.816 25.7067 124.068 26.1734 124.422 26.584C124.777 26.976 125.206 27.284 125.71 27.508C126.233 27.732 126.812 27.844 127.446 27.844Z" fill="black"/>
<path d="M140.96 30.252C140.101 30.252 139.271 30.1027 138.468 29.804C137.665 29.4867 137.003 29.0294 136.48 28.432L137.712 26.808C138.216 27.2747 138.72 27.6294 139.224 27.872C139.747 28.096 140.241 28.208 140.708 28.208C141.081 28.208 141.417 28.1707 141.716 28.096C142.015 28.0027 142.257 27.8534 142.444 27.648C142.631 27.4427 142.724 27.172 142.724 26.836C142.724 26.444 142.593 26.136 142.332 25.912C142.071 25.688 141.735 25.5014 141.324 25.352C140.913 25.2027 140.475 25.0627 140.008 24.932C139.019 24.6147 138.272 24.1667 137.768 23.588C137.264 22.9907 137.012 22.2907 137.012 21.488C137.012 20.872 137.161 20.2934 137.46 19.752C137.777 19.192 138.253 18.7347 138.888 18.38C139.523 18.0254 140.307 17.848 141.24 17.848C142.099 17.848 142.855 17.9507 143.508 18.156C144.161 18.3427 144.768 18.6694 145.328 19.136L144.208 20.872C143.872 20.536 143.471 20.284 143.004 20.116C142.556 19.9294 142.145 19.8267 141.772 19.808C141.436 19.808 141.128 19.864 140.848 19.976C140.568 20.0694 140.344 20.2187 140.176 20.424C140.008 20.6107 139.924 20.8347 139.924 21.096C139.905 21.4694 140.027 21.7774 140.288 22.02C140.568 22.244 140.923 22.4307 141.352 22.58C141.781 22.7107 142.201 22.8507 142.612 23C143.191 23.168 143.704 23.4014 144.152 23.7C144.6 23.98 144.955 24.3254 145.216 24.736C145.477 25.1467 145.608 25.6694 145.608 26.304C145.608 26.9947 145.44 27.648 145.104 28.264C144.768 28.8614 144.255 29.3467 143.564 29.72C142.873 30.0747 142.005 30.252 140.96 30.252Z" fill="black"/>
<path d="M100 30H95L96.1111 7L98.9746 9.92689L100 30Z" fill="url(#paint0_linear_1383_3094)"/>
<path d="M100 30H95L96.1111 7L98.9746 9.92689L100 30Z" fill="url(#paint1_linear_1383_3094)" style="mix-blend-mode:soft-light"/>
<path d="M21.1373 30.0012L7.3232 4.39166L6.17023 10.0178L10.1252 24.5626L0 30.0012H21.1373Z" fill="url(#paint2_linear_1383_3094)"/>
<path d="M3.69877 1.3271L6.17064 1.3271L5.18188 8.24802L3.69877 1.3271Z" fill="#17E3BF"/>
<defs>
<linearGradient id="paint0_linear_1383_3094" x1="97.5" y1="7.00001" x2="97.5" y2="30" gradientUnits="userSpaceOnUse">
<stop stop-color="#F30303"/>
<stop offset="0.0001" stop-color="#FF7777"/>
<stop offset="1" stop-color="#C50B21"/>
</linearGradient>
<linearGradient id="paint1_linear_1383_3094" x1="94.0812" y1="10.2857" x2="97.9386" y2="11.1594" gradientUnits="userSpaceOnUse">
<stop stop-color="white"/>
<stop offset="1" stop-color="white" stop-opacity="0"/>
</linearGradient>
<linearGradient id="paint2_linear_1383_3094" x1="3.70977" y1="3.73114" x2="11.2863" y2="29.0174" gradientUnits="userSpaceOnUse">
<stop stop-color="#FF8F8F"/>
<stop offset="1" stop-color="#DD2A35"/>
</linearGradient>
</defs>
</svg>
