<svg width="1006" height="133" viewBox="0 0 1006 133" fill="none" xmlns="http://www.w3.org/2000/svg">
<g opacity="0.1">
<path d="M40.712 130V25.632H0.76V3.27999H104.6V25.632H64.648V130H40.712ZM183.51 130V85.12C183.51 82.9493 183.393 80.192 183.158 76.848C182.923 73.4453 182.19 70.0427 180.958 66.64C179.726 63.2373 177.702 60.392 174.886 58.104C172.129 55.816 168.198 54.672 163.094 54.672C161.041 54.672 158.841 54.9947 156.494 55.64C154.147 56.2853 151.947 57.5467 149.894 59.424C147.841 61.2427 146.139 63.9413 144.79 67.52C143.499 71.0987 142.854 75.8507 142.854 81.776L129.126 75.264C129.126 67.7547 130.651 60.7147 133.702 54.144C136.753 47.5733 141.329 42.264 147.43 38.216C153.59 34.168 161.334 32.144 170.662 32.144C178.113 32.144 184.185 33.4053 188.878 35.928C193.571 38.4507 197.209 41.648 199.79 45.52C202.43 49.392 204.307 53.44 205.422 57.664C206.537 61.8293 207.211 65.6427 207.446 69.104C207.681 72.5653 207.798 75.088 207.798 76.672V130H183.51ZM118.566 130V3.27999H139.862V68.4H142.854V130H118.566ZM274.809 132.64C265.07 132.64 256.475 130.557 249.025 126.392C241.633 122.168 235.825 116.389 231.601 109.056C227.435 101.664 225.353 93.216 225.353 83.712C225.353 73.328 227.406 64.2933 231.513 56.608C235.619 48.9227 241.281 42.968 248.497 38.744C255.713 34.4613 264.014 32.32 273.401 32.32C283.374 32.32 291.851 34.6667 298.833 39.36C305.814 44.0533 310.977 50.6533 314.321 59.16C317.665 67.6667 318.838 77.6693 317.841 89.168H294.169V80.368C294.169 70.688 292.614 63.736 289.505 59.512C286.454 55.2293 281.438 53.088 274.457 53.088C266.302 53.088 260.289 55.5813 256.417 60.568C252.603 65.496 250.697 72.8 250.697 82.48C250.697 91.3387 252.603 98.2027 256.417 103.072C260.289 107.883 265.95 110.288 273.401 110.288C278.094 110.288 282.113 109.261 285.457 107.208C288.801 105.155 291.353 102.192 293.113 98.32L317.049 105.184C313.47 113.867 307.809 120.613 300.065 125.424C292.379 130.235 283.961 132.64 274.809 132.64ZM243.305 89.168V71.392H306.312V89.168H243.305ZM337.711 130V3.27999H378.719C379.716 3.27999 381.769 3.30933 384.879 3.368C387.988 3.42666 390.98 3.63199 393.855 3.984C404.063 5.216 412.716 8.76533 419.815 14.632C426.913 20.4987 432.311 27.9493 436.007 36.984C439.703 46.0187 441.551 55.904 441.551 66.64C441.551 77.376 439.703 87.2613 436.007 96.296C432.311 105.331 426.913 112.781 419.815 118.648C412.716 124.515 404.063 128.064 393.855 129.296C390.98 129.648 387.988 129.853 384.879 129.912C381.769 129.971 379.716 130 378.719 130H337.711ZM361.999 107.472H378.719C380.303 107.472 382.444 107.443 385.143 107.384C387.841 107.267 390.276 107.003 392.447 106.592C397.961 105.477 402.449 102.896 405.911 98.848C409.431 94.8 412.012 89.9307 413.655 84.24C415.356 78.5493 416.207 72.6827 416.207 66.64C416.207 60.304 415.327 54.2907 413.567 48.6C411.865 42.9093 409.255 38.0987 405.735 34.168C402.215 30.2373 397.785 27.744 392.447 26.688C390.276 26.2187 387.841 25.9547 385.143 25.896C382.444 25.8373 380.303 25.808 378.719 25.808H361.999V107.472ZM462.664 130V34.96H483.784V58.192L481.496 55.2C482.728 51.9147 484.37 48.9227 486.424 46.224C488.477 43.5253 491 41.296 493.992 39.536C496.28 38.128 498.773 37.0427 501.472 36.28C504.17 35.4587 506.957 34.96 509.832 34.784C512.706 34.5493 515.581 34.608 518.456 34.96V57.312C515.816 56.4907 512.736 56.2267 509.216 56.52C505.754 56.7547 502.616 57.5467 499.8 58.896C496.984 60.1867 494.608 61.9173 492.672 64.088C490.736 66.2 489.269 68.7227 488.272 71.656C487.274 74.5307 486.776 77.7867 486.776 81.424V130H462.664ZM576.244 132.64C566.682 132.64 558.292 130.499 551.076 126.216C543.86 121.933 538.228 116.037 534.18 108.528C530.191 100.96 528.196 92.2773 528.196 82.48C528.196 72.5653 530.25 63.8533 534.356 56.344C538.463 48.776 544.124 42.88 551.34 38.656C558.556 34.432 566.858 32.32 576.244 32.32C585.807 32.32 594.196 34.4613 601.412 38.744C608.687 43.0267 614.348 48.952 618.396 56.52C622.444 64.0293 624.468 72.6827 624.468 82.48C624.468 92.336 622.415 101.048 618.308 108.616C614.26 116.125 608.599 122.021 601.324 126.304C594.108 130.528 585.748 132.64 576.244 132.64ZM576.244 110.288C583.93 110.288 589.65 107.707 593.404 102.544C597.218 97.3227 599.124 90.6347 599.124 82.48C599.124 74.032 597.188 67.2853 593.316 62.24C589.503 57.1947 583.812 54.672 576.244 54.672C571.023 54.672 566.74 55.8453 563.396 58.192C560.052 60.5387 557.559 63.7947 555.916 67.96C554.332 72.1253 553.54 76.9653 553.54 82.48C553.54 90.9867 555.447 97.7627 559.26 102.808C563.132 107.795 568.794 110.288 576.244 110.288ZM645.58 21.76V0.639997H669.516V21.76H645.58ZM645.58 130V34.96H669.516V130H645.58ZM734.442 132.64C725.701 132.64 718.045 130.44 711.474 126.04C704.903 121.64 699.77 115.656 696.074 108.088C692.437 100.52 690.618 91.984 690.618 82.48C690.618 72.8 692.466 64.2053 696.162 56.696C699.917 49.128 705.167 43.1733 711.914 38.832C718.661 34.4907 726.581 32.32 735.674 32.32C744.709 32.32 752.306 34.52 758.466 38.92C764.626 43.32 769.29 49.304 772.458 56.872C775.626 64.44 777.21 72.976 777.21 82.48C777.21 91.984 775.597 100.52 772.37 108.088C769.202 115.656 764.45 121.64 758.114 126.04C751.778 130.44 743.887 132.64 734.442 132.64ZM738.314 111.344C743.653 111.344 747.906 110.141 751.074 107.736C754.301 105.331 756.618 101.957 758.026 97.616C759.434 93.2747 760.138 88.2293 760.138 82.48C760.138 76.7307 759.434 71.6853 758.026 67.344C756.618 63.0027 754.359 59.6293 751.25 57.224C748.199 54.8187 744.181 53.616 739.194 53.616C733.855 53.616 729.455 54.936 725.994 57.576C722.591 60.1573 720.069 63.648 718.426 68.048C716.783 72.3893 715.962 77.2 715.962 82.48C715.962 87.8187 716.754 92.688 718.338 97.088C719.922 101.429 722.357 104.891 725.642 107.472C728.927 110.053 733.151 111.344 738.314 111.344ZM760.138 130V64.88H757.146V3.27999H781.258V130H760.138ZM809.77 130V106.064H833.706V130H809.77ZM864.033 21.76V0.639997H887.969V21.76H864.033ZM864.033 130V34.96H887.969V130H864.033ZM957.119 132.64C947.557 132.64 939.167 130.499 931.951 126.216C924.735 121.933 919.103 116.037 915.055 108.528C911.066 100.96 909.071 92.2773 909.071 82.48C909.071 72.5653 911.125 63.8533 915.231 56.344C919.338 48.776 924.999 42.88 932.215 38.656C939.431 34.432 947.733 32.32 957.119 32.32C966.682 32.32 975.071 34.4613 982.287 38.744C989.562 43.0267 995.223 48.952 999.271 56.52C1003.32 64.0293 1005.34 72.6827 1005.34 82.48C1005.34 92.336 1003.29 101.048 999.183 108.616C995.135 116.125 989.474 122.021 982.199 126.304C974.983 130.528 966.623 132.64 957.119 132.64ZM957.119 110.288C964.805 110.288 970.525 107.707 974.279 102.544C978.093 97.3227 979.999 90.6347 979.999 82.48C979.999 74.032 978.063 67.2853 974.191 62.24C970.378 57.1947 964.687 54.672 957.119 54.672C951.898 54.672 947.615 55.8453 944.271 58.192C940.927 60.5387 938.434 63.7947 936.791 67.96C935.207 72.1253 934.415 76.9653 934.415 82.48C934.415 90.9867 936.322 97.7627 940.135 102.808C944.007 107.795 949.669 110.288 957.119 110.288Z" fill="#39379E" fill-opacity="0.02"/>
<path d="M40.712 130H39.712V131H40.712V130ZM40.712 25.632H41.712V24.632H40.712V25.632ZM0.76 25.632H-0.24V26.632H0.76V25.632ZM0.76 3.27999V2.27999H-0.24V3.27999H0.76ZM104.6 3.27999H105.6V2.27999H104.6V3.27999ZM104.6 25.632V26.632H105.6V25.632H104.6ZM64.648 25.632V24.632H63.648V25.632H64.648ZM64.648 130V131H65.648V130H64.648ZM41.712 130V25.632H39.712V130H41.712ZM40.712 24.632H0.76V26.632H40.712V24.632ZM1.76 25.632V3.27999H-0.24V25.632H1.76ZM0.76 4.27999H104.6V2.27999H0.76V4.27999ZM103.6 3.27999V25.632H105.6V3.27999H103.6ZM104.6 24.632H64.648V26.632H104.6V24.632ZM63.648 25.632V130H65.648V25.632H63.648ZM64.648 129H40.712V131H64.648V129ZM183.51 130H182.51V131H183.51V130ZM183.158 76.848L182.16 76.9168L182.16 76.918L183.158 76.848ZM180.958 66.64L181.898 66.2996L180.958 66.64ZM174.886 58.104L174.247 58.8736L174.255 58.8801L174.886 58.104ZM156.494 55.64L156.759 56.6042L156.494 55.64ZM149.894 59.424L150.557 60.1726L150.563 60.1674L150.569 60.162L149.894 59.424ZM144.79 67.52L143.854 67.1672L143.852 67.1739L143.849 67.1807L144.79 67.52ZM142.854 81.776L142.425 82.6795L143.854 83.3572V81.776H142.854ZM129.126 75.264H128.126V75.8964L128.697 76.1675L129.126 75.264ZM133.702 54.144L132.795 53.7229L133.702 54.144ZM147.43 38.216L146.881 37.3803L146.877 37.3827L147.43 38.216ZM188.878 35.928L188.404 36.8088L188.878 35.928ZM199.79 45.52L198.958 46.0747L198.964 46.0833L199.79 45.52ZM205.422 57.664L204.455 57.9192L204.456 57.9225L205.422 57.664ZM207.446 69.104L206.448 69.1716L207.446 69.104ZM207.798 130V131H208.798V130H207.798ZM118.566 130H117.566V131H118.566V130ZM118.566 3.27999V2.27999H117.566V3.27999H118.566ZM139.862 3.27999H140.862V2.27999H139.862V3.27999ZM139.862 68.4H138.862V69.4H139.862V68.4ZM142.854 68.4H143.854V67.4H142.854V68.4ZM142.854 130V131H143.854V130H142.854ZM184.51 130V85.12H182.51V130H184.51ZM184.51 85.12C184.51 82.917 184.391 80.1342 184.155 76.778L182.16 76.918C182.394 80.2497 182.51 82.9816 182.51 85.12H184.51ZM184.156 76.7792C183.914 73.2783 183.16 69.7843 181.898 66.2996L180.018 66.9804C181.22 70.301 181.932 73.6124 182.16 76.9168L184.156 76.7792ZM181.898 66.2996C180.604 62.7258 178.473 59.73 175.516 57.3279L174.255 58.8801C176.931 61.054 178.848 63.7489 180.018 66.9804L181.898 66.2996ZM175.524 57.3344C172.525 54.8454 168.334 53.672 163.094 53.672V55.672C168.062 55.672 171.732 56.7866 174.247 58.8736L175.524 57.3344ZM163.094 53.672C160.936 53.672 158.646 54.011 156.229 54.6758L156.759 56.6042C159.035 55.9784 161.145 55.672 163.094 55.672V53.672ZM156.229 54.6758C153.709 55.3687 151.372 56.7173 149.219 58.686L150.569 60.162C152.522 58.376 154.585 57.202 156.759 56.6042L156.229 54.6758ZM149.231 58.6754C147.017 60.6359 145.24 63.4931 143.854 67.1672L145.726 67.8728C147.039 64.3896 148.664 61.8494 150.557 60.1726L149.231 58.6754ZM143.849 67.1807C142.504 70.9114 141.854 75.7922 141.854 81.776H143.854C143.854 75.9092 144.495 71.2859 145.731 67.8593L143.849 67.1807ZM143.282 80.8725L129.554 74.3605L128.697 76.1675L142.425 82.6795L143.282 80.8725ZM130.126 75.264C130.126 67.8947 131.622 60.999 134.609 54.5651L132.795 53.7229C129.681 60.4304 128.126 67.6147 128.126 75.264H130.126ZM134.609 54.5651C137.581 48.1638 142.033 42.9964 147.983 39.0493L146.877 37.3827C140.624 41.5316 135.924 46.9829 132.795 53.7229L134.609 54.5651ZM147.979 39.0517C153.938 35.1361 161.477 33.144 170.662 33.144V31.144C161.19 31.144 153.242 33.1999 146.881 37.3803L147.979 39.0517ZM170.662 33.144C178.01 33.144 183.903 34.3893 188.404 36.8088L189.351 35.0472C184.466 32.4213 178.216 31.144 170.662 31.144V33.144ZM188.404 36.8088C192.974 39.2652 196.48 42.3578 198.958 46.0747L200.622 44.9653C197.937 40.9382 194.168 37.6361 189.351 35.0472L188.404 36.8088ZM198.964 46.0833C201.544 49.8682 203.371 53.8129 204.455 57.9192L206.389 57.4088C205.243 53.0671 203.316 48.9158 200.616 44.9567L198.964 46.0833ZM204.456 57.9225C205.558 62.0397 206.219 65.7881 206.448 69.1716L208.444 69.0364C208.204 65.4972 207.515 61.6189 206.388 57.4055L204.456 57.9225ZM206.448 69.1716C206.683 72.6304 206.798 75.1243 206.798 76.672H208.798C208.798 75.0517 208.678 72.5003 208.444 69.0364L206.448 69.1716ZM206.798 76.672V130H208.798V76.672H206.798ZM207.798 129H183.51V131H207.798V129ZM119.566 130V3.27999H117.566V130H119.566ZM118.566 4.27999H139.862V2.27999H118.566V4.27999ZM138.862 3.27999V68.4H140.862V3.27999H138.862ZM139.862 69.4H142.854V67.4H139.862V69.4ZM141.854 68.4V130H143.854V68.4H141.854ZM142.854 129H118.566V131H142.854V129ZM249.025 126.392L248.528 127.26L248.537 127.265L249.025 126.392ZM231.6 109.056L230.729 109.547L230.734 109.555L231.6 109.056ZM231.512 56.608L230.631 56.1367L231.512 56.608ZM248.497 38.744L249.002 39.607L249.007 39.6039L248.497 38.744ZM298.832 39.36L299.39 38.5301L298.832 39.36ZM314.32 59.16L315.251 58.7941L314.32 59.16ZM317.841 89.168V90.168H318.758L318.837 89.2544L317.841 89.168ZM294.169 89.168H293.169V90.168H294.169V89.168ZM289.505 59.512L288.69 60.0922L288.695 60.0985L288.699 60.1048L289.505 59.512ZM256.417 60.568L255.627 59.9547L255.626 59.956L256.417 60.568ZM256.417 103.072L255.629 103.689L255.637 103.699L256.417 103.072ZM285.457 107.208L284.933 106.356L285.457 107.208ZM293.112 98.32L293.388 97.3587L292.559 97.121L292.202 97.9062L293.112 98.32ZM317.049 105.184L317.973 105.565L318.399 104.531L317.324 104.223L317.049 105.184ZM300.065 125.424L299.537 124.575L299.534 124.576L300.065 125.424ZM243.305 89.168H242.305V90.168H243.305V89.168ZM243.305 71.392V70.392H242.305V71.392H243.305ZM306.312 71.392H307.312V70.392H306.312V71.392ZM306.312 89.168V90.168H307.312V89.168H306.312ZM274.809 131.64C265.216 131.64 256.794 129.59 249.512 125.519L248.537 127.265C256.156 131.525 264.923 133.64 274.809 133.64V131.64ZM249.521 125.524C242.282 121.387 236.602 115.736 232.467 108.557L230.734 109.555C235.047 117.043 240.983 122.949 248.528 127.26L249.521 125.524ZM232.472 108.565C228.401 101.34 226.352 93.0651 226.352 83.712H224.352C224.352 93.3669 226.47 101.988 230.729 109.547L232.472 108.565ZM226.352 83.712C226.352 73.461 228.379 64.5942 232.394 57.0793L230.631 56.1367C226.433 63.9924 224.352 73.195 224.352 83.712H226.352ZM232.394 57.0793C236.418 49.5496 241.952 43.7337 249.002 39.607L247.991 37.881C240.609 42.2023 234.82 48.2957 230.631 56.1367L232.394 57.0793ZM249.007 39.6039C256.051 35.4235 264.172 33.32 273.401 33.32V31.32C263.856 31.32 255.374 33.4992 247.986 37.884L249.007 39.6039ZM273.401 33.32C283.213 33.32 291.487 35.6267 298.275 40.1899L299.39 38.5301C292.215 33.7066 283.535 31.32 273.401 31.32V33.32ZM298.275 40.1899C305.073 44.7601 310.113 51.191 313.39 59.5258L315.251 58.7941C311.84 50.1157 306.555 43.3466 299.39 38.5301L298.275 40.1899ZM313.39 59.5258C316.664 67.8561 317.832 77.6974 316.844 89.0816L318.837 89.2544C319.844 77.6413 318.665 67.4772 315.251 58.7941L313.39 59.5258ZM317.841 88.168H294.169V90.168H317.841V88.168ZM295.169 89.168V80.368H293.169V89.168H295.169ZM295.169 80.368C295.169 70.6312 293.614 63.4085 290.31 58.9192L288.699 60.1048C291.613 64.0635 293.169 70.7448 293.169 80.368H295.169ZM290.319 58.9318C287.022 54.3035 281.645 52.088 274.457 52.088V54.088C281.231 54.088 285.886 56.1551 288.69 60.0922L290.319 58.9318ZM274.457 52.088C266.091 52.088 259.741 54.6558 255.627 59.9547L257.206 61.1813C260.836 56.5069 266.513 54.088 274.457 54.088V52.088ZM255.626 59.956C251.62 65.1326 249.697 72.6938 249.697 82.48H251.697C251.697 72.9062 253.586 65.8594 257.207 61.18L255.626 59.956ZM249.697 82.48C249.697 91.4682 251.63 98.5813 255.629 103.689L257.204 102.455C253.577 97.824 251.697 91.2091 251.697 82.48H249.697ZM255.637 103.699C259.739 108.795 265.716 111.288 273.401 111.288V109.288C266.183 109.288 260.838 106.971 257.196 102.445L255.637 103.699ZM273.401 111.288C278.242 111.288 282.45 110.228 285.98 108.06L284.933 106.356C281.775 108.295 277.946 109.288 273.401 109.288V111.288ZM285.98 108.06C289.508 105.894 292.188 102.771 294.023 98.7338L292.202 97.9062C290.517 101.613 288.093 104.416 284.933 106.356L285.98 108.06ZM292.837 99.2812L316.773 106.145L317.324 104.223L293.388 97.3587L292.837 99.2812ZM316.124 104.803C312.623 113.298 307.097 119.878 299.537 124.575L300.592 126.273C308.52 121.349 314.317 114.435 317.973 105.565L316.124 104.803ZM299.534 124.576C292.009 129.286 283.775 131.64 274.809 131.64V133.64C284.146 133.64 292.749 131.183 300.595 126.272L299.534 124.576ZM244.305 89.168V71.392H242.305V89.168H244.305ZM243.305 72.392H306.312V70.392H243.305V72.392ZM305.312 71.392V89.168H307.312V71.392H305.312ZM306.312 88.168H243.305V90.168H306.312V88.168ZM337.711 130H336.711V131H337.711V130ZM337.711 3.27999V2.27999H336.711V3.27999H337.711ZM384.879 3.368L384.86 4.36782L384.879 3.368ZM393.855 3.984L393.733 4.97659L393.735 4.97679L393.855 3.984ZM419.815 14.632L420.452 13.8612L419.815 14.632ZM436.007 36.984L436.932 36.6054L436.007 36.984ZM436.007 96.296L436.932 96.6746L436.007 96.296ZM419.815 118.648L420.452 119.419L419.815 118.648ZM393.855 129.296L393.735 128.303L393.733 128.303L393.855 129.296ZM384.879 129.912L384.897 130.912L384.879 129.912ZM361.999 107.472H360.999V108.472H361.999V107.472ZM385.143 107.384L385.164 108.384L385.175 108.384L385.186 108.383L385.143 107.384ZM392.447 106.592L392.633 107.575L392.645 107.572L392.447 106.592ZM405.911 98.848L405.156 98.1918L405.151 98.1981L405.911 98.848ZM413.655 84.24L412.696 83.9535L412.694 83.9627L413.655 84.24ZM413.567 48.6L412.608 48.8865L412.611 48.8955L413.567 48.6ZM405.735 34.168L406.48 33.5009L405.735 34.168ZM392.447 26.688L392.235 27.6654L392.244 27.6673L392.253 27.669L392.447 26.688ZM385.143 25.896L385.164 24.8962L385.143 25.896ZM361.999 25.808V24.808H360.999V25.808H361.999ZM338.711 130V3.27999H336.711V130H338.711ZM337.711 4.27999H378.719V2.27999H337.711V4.27999ZM378.719 4.27999C379.705 4.27999 381.749 4.30912 384.86 4.36782L384.897 2.36818C381.79 2.30954 379.727 2.27999 378.719 2.27999V4.27999ZM384.86 4.36782C387.937 4.42588 390.895 4.62905 393.733 4.97658L393.976 2.99141C391.065 2.63494 388.039 2.42744 384.897 2.36818L384.86 4.36782ZM393.735 4.97679C403.776 6.18861 412.243 9.67204 419.178 15.4028L420.452 13.8612C413.189 7.85863 404.35 4.24339 393.974 2.9912L393.735 4.97679ZM419.178 15.4028C426.142 21.1582 431.444 28.471 435.081 37.3626L436.932 36.6054C433.178 27.4276 427.685 19.8391 420.452 13.8612L419.178 15.4028ZM435.081 37.3626C438.723 46.2656 440.551 56.0208 440.551 66.64H442.551C442.551 55.7872 440.682 45.7717 436.932 36.6054L435.081 37.3626ZM440.551 66.64C440.551 77.2592 438.723 87.0144 435.081 95.9174L436.932 96.6746C440.682 87.5083 442.551 77.4928 442.551 66.64H440.551ZM435.081 95.9174C431.444 104.809 426.142 112.122 419.178 117.877L420.452 119.419C427.685 113.441 433.178 105.852 436.932 96.6746L435.081 95.9174ZM419.178 117.877C412.243 123.608 403.776 127.091 393.735 128.303L393.974 130.289C404.35 129.037 413.189 125.421 420.452 119.419L419.178 117.877ZM393.733 128.303C390.895 128.651 387.937 128.854 384.86 128.912L384.897 130.912C388.039 130.853 391.065 130.645 393.976 130.289L393.733 128.303ZM384.86 128.912C381.749 128.971 379.705 129 378.719 129V131C379.727 131 381.79 130.97 384.897 130.912L384.86 128.912ZM378.719 129H337.711V131H378.719V129ZM361.999 108.472H378.719V106.472H361.999V108.472ZM378.719 108.472C380.313 108.472 382.463 108.442 385.164 108.384L385.121 106.384C382.425 106.443 380.292 106.472 378.719 106.472V108.472ZM385.186 108.383C387.922 108.264 390.406 107.996 392.633 107.575L392.261 105.609C390.146 106.009 387.76 106.269 385.099 106.385L385.186 108.383ZM392.645 107.572C398.365 106.416 403.056 103.726 406.671 99.4979L405.151 98.1981C401.843 102.066 397.557 104.539 392.249 105.612L392.645 107.572ZM406.665 99.5042C410.29 95.3354 412.937 90.3331 414.615 84.5173L412.694 83.9627C411.087 89.5282 408.571 94.2646 405.156 98.1918L406.665 99.5042ZM414.613 84.5264C416.342 78.7412 417.207 72.778 417.207 66.64H415.207C415.207 72.5874 414.37 78.3575 412.697 83.9536L414.613 84.5264ZM417.207 66.64C417.207 60.2102 416.313 54.0968 414.522 48.3045L412.611 48.8955C414.34 54.4845 415.207 60.3978 415.207 66.64H417.207ZM414.525 48.3136C412.787 42.4997 410.109 37.5543 406.48 33.5009L404.99 34.8351C408.4 38.6431 410.944 43.319 412.609 48.8864L414.525 48.3136ZM406.48 33.5009C402.81 29.4032 398.185 26.8037 392.641 25.707L392.253 27.669C397.386 28.6843 401.619 31.0714 404.99 34.8351L406.48 33.5009ZM392.658 25.7106C390.413 25.2253 387.914 24.956 385.164 24.8962L385.121 26.8958C387.769 26.9533 390.139 27.2121 392.235 27.6654L392.658 25.7106ZM385.164 24.8962C382.463 24.8375 380.313 24.808 378.719 24.808V26.808C380.292 26.808 382.425 26.8372 385.121 26.8958L385.164 24.8962ZM378.719 24.808H361.999V26.808H378.719V24.808ZM360.999 25.808V107.472H362.999V25.808H360.999ZM462.664 130H461.664V131H462.664V130ZM462.664 34.96V33.96H461.664V34.96H462.664ZM483.784 34.96H484.784V33.96H483.784V34.96ZM483.784 58.192L482.989 58.7994L484.784 61.1459V58.192H483.784ZM481.496 55.2L480.559 54.8489L480.365 55.3675L480.701 55.8074L481.496 55.2ZM493.992 39.536L494.499 40.3979L494.507 40.3929L494.516 40.3877L493.992 39.536ZM501.472 36.28L501.744 37.2423L501.753 37.2396L501.763 37.2367L501.472 36.28ZM509.832 34.784L509.893 35.7821L509.903 35.7815L509.913 35.7807L509.832 34.784ZM518.456 34.96H519.456V34.075L518.577 33.9674L518.456 34.96ZM518.456 57.312L518.159 58.2669L519.456 58.6704V57.312H518.456ZM509.216 56.52L509.283 57.5177L509.291 57.5172L509.299 57.5165L509.216 56.52ZM499.8 58.896L500.216 59.8051L500.224 59.8015L500.232 59.7978L499.8 58.896ZM492.672 64.088L493.409 64.7638L493.418 64.7536L492.672 64.088ZM488.272 71.656L489.217 71.9838L489.219 71.9779L488.272 71.656ZM486.776 130V131H487.776V130H486.776ZM463.664 130V34.96H461.664V130H463.664ZM462.664 35.96H483.784V33.96H462.664V35.96ZM482.784 34.96V58.192H484.784V34.96H482.784ZM484.578 57.5845L482.29 54.5925L480.701 55.8074L482.989 58.7994L484.578 57.5845ZM482.432 55.5511C483.631 52.3538 485.227 49.448 487.22 46.8295L485.628 45.6185C483.514 48.3973 481.824 51.4755 480.559 54.8489L482.432 55.5511ZM487.22 46.8295C489.192 44.2368 491.616 42.0936 494.499 40.3979L493.485 38.6741C490.383 40.4984 487.762 42.8139 485.628 45.6185L487.22 46.8295ZM494.516 40.3877C496.722 39.0301 499.13 37.981 501.744 37.2423L501.2 35.3177C498.416 36.1043 495.838 37.2259 493.468 38.6843L494.516 40.3877ZM501.763 37.2367C504.385 36.4386 507.095 35.9535 509.893 35.7821L509.771 33.7859C506.82 33.9665 503.956 34.4788 501.181 35.3233L501.763 37.2367ZM509.913 35.7807C512.72 35.5516 515.527 35.6088 518.334 35.9526L518.577 33.9674C515.636 33.6072 512.693 33.5471 509.75 33.7873L509.913 35.7807ZM517.456 34.96V57.312H519.456V34.96H517.456ZM518.753 56.3571C515.961 55.4886 512.747 55.2223 509.133 55.5235L509.299 57.5165C512.725 57.2311 515.67 57.4927 518.159 58.2669L518.753 56.3571ZM509.148 55.5223C505.574 55.7646 502.31 56.5843 499.368 57.9942L500.232 59.7978C502.922 58.509 505.935 57.7448 509.283 57.5177L509.148 55.5223ZM499.383 57.9869C496.45 59.3313 493.959 61.1421 491.925 63.4224L493.418 64.7536C495.256 62.6926 497.518 61.042 500.216 59.8051L499.383 57.9869ZM491.935 63.4123C489.898 65.6345 488.363 68.2804 487.325 71.3341L489.219 71.9779C490.175 69.1649 491.574 66.7655 493.409 64.7637L491.935 63.4123ZM487.327 71.3282C486.287 74.3266 485.776 77.6963 485.776 81.424H487.776C487.776 77.8771 488.262 74.7347 489.217 71.9838L487.327 71.3282ZM485.776 81.424V130H487.776V81.424H485.776ZM486.776 129H462.664V131H486.776V129ZM551.076 126.216L550.566 127.076L551.076 126.216ZM534.18 108.528L533.296 108.994L533.3 109.003L534.18 108.528ZM534.356 56.344L535.234 56.8238L535.235 56.8209L534.356 56.344ZM551.34 38.656L550.835 37.793L551.34 38.656ZM601.412 38.744L600.902 39.604L600.905 39.6058L601.412 38.744ZM618.396 56.52L617.514 56.9917L617.516 56.9945L618.396 56.52ZM618.308 108.616L617.429 108.139L617.428 108.141L618.308 108.616ZM601.324 126.304L601.829 127.167L601.832 127.166L601.324 126.304ZM593.404 102.544L592.597 101.954L592.596 101.956L593.404 102.544ZM593.316 62.24L592.518 62.843L592.523 62.8488L593.316 62.24ZM563.396 58.192L563.971 59.0106L563.396 58.192ZM555.916 67.96L554.986 67.5931L554.982 67.6045L555.916 67.96ZM559.26 102.808L558.462 103.411L558.47 103.421L559.26 102.808ZM576.244 131.64C566.836 131.64 558.628 129.535 551.587 125.356L550.566 127.076C557.957 131.463 566.528 133.64 576.244 133.64V131.64ZM551.587 125.356C544.529 121.168 539.024 115.406 535.06 108.053L533.3 109.003C537.433 116.669 543.191 122.699 550.566 127.076L551.587 125.356ZM535.065 108.062C531.162 100.657 529.196 92.1386 529.196 82.48H527.196C527.196 92.4161 529.22 101.263 533.296 108.994L535.065 108.062ZM529.196 82.48C529.196 72.7063 531.219 64.1642 535.234 56.8238L533.479 55.8642C529.28 63.5425 527.196 72.4244 527.196 82.48H529.196ZM535.235 56.8209C539.258 49.4083 544.792 43.648 551.845 39.519L550.835 37.793C543.457 42.112 537.668 48.1437 533.477 55.8671L535.235 56.8209ZM551.845 39.519C558.89 35.3953 567.013 33.32 576.244 33.32V31.32C566.702 31.32 558.222 33.4687 550.835 37.793L551.845 39.519ZM576.244 33.32C585.653 33.32 593.861 35.4252 600.902 39.6039L601.923 37.884C594.532 33.4975 585.961 31.32 576.244 31.32V33.32ZM600.905 39.6058C608.019 43.7936 613.552 49.5828 617.514 56.9916L619.278 56.0483C615.145 48.3212 609.355 42.2597 601.92 37.8822L600.905 39.6058ZM617.516 56.9945C621.474 64.3377 623.468 72.8235 623.468 82.48H625.468C625.468 72.5418 623.414 63.721 619.276 56.0455L617.516 56.9945ZM623.468 82.48C623.468 92.1938 621.446 100.737 617.429 108.139L619.187 109.093C623.384 101.359 625.468 92.4782 625.468 82.48H623.468ZM617.428 108.141C613.466 115.492 607.933 121.253 600.817 125.442L601.832 127.166C609.265 122.789 615.055 116.759 619.189 109.091L617.428 108.141ZM600.819 125.441C593.776 129.564 585.595 131.64 576.244 131.64V133.64C585.901 133.64 594.44 131.492 601.829 127.167L600.819 125.441ZM576.244 111.288C584.176 111.288 590.231 108.608 594.213 103.132L592.596 101.956C589.069 106.805 583.683 109.288 576.244 109.288V111.288ZM594.212 103.134C598.18 97.701 600.124 90.7908 600.124 82.48H598.124C598.124 90.4785 596.256 96.9443 592.597 101.954L594.212 103.134ZM600.124 82.48C600.124 73.8839 598.154 66.9008 594.11 61.6312L592.523 62.8488C596.223 67.6698 598.124 74.1801 598.124 82.48H600.124ZM594.114 61.637C590.073 56.2911 584.056 53.672 576.244 53.672V55.672C583.568 55.672 588.932 58.0982 592.518 62.843L594.114 61.637ZM576.244 53.672C570.875 53.672 566.375 54.8796 562.822 57.3734L563.971 59.0106C567.105 56.811 571.171 55.672 576.244 55.672V53.672ZM562.822 57.3734C559.302 59.8433 556.693 63.2639 554.986 67.5931L556.846 68.3269C558.425 64.3255 560.802 61.234 563.971 59.0106L562.822 57.3734ZM554.982 67.6045C553.345 71.9068 552.54 76.8717 552.54 82.48H554.54C554.54 77.059 555.319 72.3439 556.851 68.3154L554.982 67.6045ZM552.54 82.48C552.54 91.1299 554.479 98.1408 558.462 103.411L560.058 102.205C556.415 97.3846 554.54 90.8434 554.54 82.48H552.54ZM558.47 103.421C562.567 108.697 568.547 111.288 576.244 111.288V109.288C569.04 109.288 563.697 106.892 560.05 102.195L558.47 103.421ZM645.58 21.76H644.58V22.76H645.58V21.76ZM645.58 0.639999V-0.360001H644.58V0.639999H645.58ZM669.516 0.639999H670.516V-0.360001H669.516V0.639999ZM669.516 21.76V22.76H670.516V21.76H669.516ZM645.58 130H644.58V131H645.58V130ZM645.58 34.96V33.96H644.58V34.96H645.58ZM669.516 34.96H670.516V33.96H669.516V34.96ZM669.516 130V131H670.516V130H669.516ZM646.58 21.76V0.639999H644.58V21.76H646.58ZM645.58 1.64H669.516V-0.360001H645.58V1.64ZM668.516 0.639999V21.76H670.516V0.639999H668.516ZM669.516 20.76H645.58V22.76H669.516V20.76ZM646.58 130V34.96H644.58V130H646.58ZM645.58 35.96H669.516V33.96H645.58V35.96ZM668.516 34.96V130H670.516V34.96H668.516ZM669.516 129H645.58V131H669.516V129ZM711.474 126.04L710.918 126.871L711.474 126.04ZM696.074 108.088L695.173 108.521L695.176 108.527L696.074 108.088ZM696.162 56.696L695.266 56.2516L695.265 56.2544L696.162 56.696ZM711.914 38.832L712.455 39.6729L711.914 38.832ZM758.466 38.92L759.047 38.1063L758.466 38.92ZM772.458 56.872L771.536 57.2581L772.458 56.872ZM772.37 108.088L771.45 107.696L771.448 107.702L772.37 108.088ZM758.114 126.04L758.685 126.861L758.114 126.04ZM751.074 107.736L750.476 106.934L750.469 106.94L751.074 107.736ZM758.026 97.616L757.075 97.3075L758.026 97.616ZM758.026 67.344L757.075 67.6525L758.026 67.344ZM751.25 57.224L750.631 58.0093L750.638 58.015L751.25 57.224ZM725.994 57.576L726.599 58.3727L726.601 58.3711L725.994 57.576ZM718.426 68.048L719.361 68.4019L719.363 68.3978L718.426 68.048ZM718.338 97.088L717.397 97.4267L717.399 97.4308L718.338 97.088ZM725.642 107.472L725.024 108.258L725.642 107.472ZM760.138 130H759.138V131H760.138V130ZM760.138 64.88H761.138V63.88H760.138V64.88ZM757.146 64.88H756.146V65.88H757.146V64.88ZM757.146 3.27999V2.27999H756.146V3.27999H757.146ZM781.258 3.27999H782.258V2.27999H781.258V3.27999ZM781.258 130V131H782.258V130H781.258ZM734.442 131.64C725.877 131.64 718.419 129.487 712.031 125.209L710.918 126.871C717.67 131.393 725.524 133.64 734.442 133.64V131.64ZM712.031 125.209C705.616 120.914 700.596 115.069 696.973 107.649L695.176 108.527C698.944 116.243 704.191 122.366 710.918 126.871L712.031 125.209ZM696.975 107.655C693.411 100.239 691.618 91.8539 691.618 82.48H689.618C689.618 92.1141 691.462 100.801 695.173 108.521L696.975 107.655ZM691.618 82.48C691.618 72.9292 693.441 64.4895 697.059 57.1376L695.265 56.2544C691.491 63.9211 689.618 72.6708 689.618 82.48H691.618ZM697.058 57.1404C700.737 49.7253 705.869 43.9113 712.455 39.6729L711.373 37.9911C704.466 42.4354 699.097 48.5307 695.266 56.2516L697.058 57.1404ZM712.455 39.6729C719.02 35.4488 726.746 33.32 735.674 33.32V31.32C726.415 31.32 718.302 33.5325 711.373 37.9911L712.455 39.6729ZM735.674 33.32C744.542 33.32 751.925 35.4769 757.885 39.7337L759.047 38.1063C752.687 33.5631 744.876 31.32 735.674 31.32V33.32ZM757.885 39.7337C763.881 44.0167 768.433 49.8467 771.536 57.2581L773.381 56.4859C770.147 48.7613 765.371 42.6233 759.047 38.1063L757.885 39.7337ZM771.536 57.2581C774.645 64.686 776.21 73.0878 776.21 82.48H778.21C778.21 72.8642 776.607 64.194 773.381 56.4859L771.536 57.2581ZM776.21 82.48C776.21 91.8699 774.616 100.27 771.45 107.696L773.29 108.48C776.577 100.77 778.21 92.0981 778.21 82.48H776.21ZM771.448 107.702C768.348 115.106 763.713 120.934 757.544 125.219L758.685 126.861C765.187 122.346 770.056 116.206 773.293 108.474L771.448 107.702ZM757.544 125.219C751.41 129.478 743.73 131.64 734.442 131.64V133.64C744.045 133.64 752.147 131.402 758.685 126.861L757.544 125.219ZM738.314 112.344C743.797 112.344 748.286 111.109 751.679 108.532L750.469 106.94C747.526 109.174 743.509 110.344 738.314 110.344V112.344ZM751.672 108.538C755.086 105.992 757.514 102.435 758.977 97.9245L757.075 97.3075C755.722 101.479 753.515 104.669 750.476 106.934L751.672 108.538ZM758.977 97.9245C760.425 93.4615 761.138 88.3082 761.138 82.48H759.138C759.138 88.1505 758.443 93.0878 757.075 97.3075L758.977 97.9245ZM761.138 82.48C761.138 76.6518 760.425 71.4985 758.977 67.0355L757.075 67.6525C758.443 71.8722 759.138 76.8095 759.138 82.48H761.138ZM758.977 67.0355C757.518 62.5345 755.155 58.9803 751.862 56.433L750.638 58.015C753.564 60.2784 755.719 63.4708 757.075 67.6525L758.977 67.0355ZM751.869 56.4387C748.597 53.859 744.341 52.616 739.194 52.616V54.616C744.021 54.616 747.801 55.7783 750.631 58.0093L751.869 56.4387ZM739.194 52.616C733.687 52.616 729.06 53.9802 725.388 56.7809L726.601 58.3711C729.851 55.8918 734.024 54.616 739.194 54.616V52.616ZM725.39 56.7793C721.821 59.4864 719.191 63.1391 717.489 67.6982L719.363 68.3978C720.946 64.1569 723.362 60.8283 726.599 58.3727L725.39 56.7793ZM717.491 67.6941C715.8 72.1629 714.962 77.0956 714.962 82.48H716.962C716.962 77.3044 717.767 72.6157 719.361 68.4019L717.491 67.6941ZM714.962 82.48C714.962 87.918 715.769 92.9039 717.397 97.4267L719.279 96.7493C717.739 92.4721 716.962 87.7193 716.962 82.48H714.962ZM717.399 97.4308C719.04 101.928 721.577 105.55 725.024 108.258L726.26 106.686C723.136 104.231 720.805 100.931 719.278 96.7452L717.399 97.4308ZM725.024 108.258C728.524 111.008 732.982 112.344 738.314 112.344V110.344C733.321 110.344 729.331 109.098 726.26 106.686L725.024 108.258ZM761.138 130V64.88H759.138V130H761.138ZM760.138 63.88H757.146V65.88H760.138V63.88ZM758.146 64.88V3.27999H756.146V64.88H758.146ZM757.146 4.27999H781.258V2.27999H757.146V4.27999ZM780.258 3.27999V130H782.258V3.27999H780.258ZM781.258 129H760.138V131H781.258V129ZM809.77 130H808.77V131H809.77V130ZM809.77 106.064V105.064H808.77V106.064H809.77ZM833.706 106.064H834.706V105.064H833.706V106.064ZM833.706 130V131H834.706V130H833.706ZM810.77 130V106.064H808.77V130H810.77ZM809.77 107.064H833.706V105.064H809.77V107.064ZM832.706 106.064V130H834.706V106.064H832.706ZM833.706 129H809.77V131H833.706V129ZM864.033 21.76H863.033V22.76H864.033V21.76ZM864.033 0.639999V-0.360001H863.033V0.639999H864.033ZM887.969 0.639999H888.969V-0.360001H887.969V0.639999ZM887.969 21.76V22.76H888.969V21.76H887.969ZM864.033 130H863.033V131H864.033V130ZM864.033 34.96V33.96H863.033V34.96H864.033ZM887.969 34.96H888.969V33.96H887.969V34.96ZM887.969 130V131H888.969V130H887.969ZM865.033 21.76V0.639999H863.033V21.76H865.033ZM864.033 1.64H887.969V-0.360001H864.033V1.64ZM886.969 0.639999V21.76H888.969V0.639999H886.969ZM887.969 20.76H864.033V22.76H887.969V20.76ZM865.033 130V34.96H863.033V130H865.033ZM864.033 35.96H887.969V33.96H864.033V35.96ZM886.969 34.96V130H888.969V34.96H886.969ZM887.969 129H864.033V131H887.969V129ZM931.951 126.216L931.441 127.076L931.951 126.216ZM915.055 108.528L914.171 108.994L914.175 109.003L915.055 108.528ZM915.231 56.344L916.109 56.8238L916.11 56.8209L915.231 56.344ZM932.215 38.656L931.71 37.793L932.215 38.656ZM982.287 38.744L981.777 39.604L981.78 39.6058L982.287 38.744ZM999.271 56.52L998.389 56.9917L998.391 56.9945L999.271 56.52ZM999.183 108.616L998.304 108.139L998.303 108.141L999.183 108.616ZM982.199 126.304L982.704 127.167L982.707 127.166L982.199 126.304ZM974.279 102.544L973.472 101.954L973.471 101.956L974.279 102.544ZM974.191 62.24L973.393 62.843L973.398 62.8488L974.191 62.24ZM944.271 58.192L944.846 59.0106L944.271 58.192ZM936.791 67.96L935.861 67.5931L935.857 67.6045L936.791 67.96ZM940.135 102.808L939.337 103.411L939.345 103.421L940.135 102.808ZM957.119 131.64C947.711 131.64 939.503 129.535 932.462 125.356L931.441 127.076C938.832 131.463 947.403 133.64 957.119 133.64V131.64ZM932.462 125.356C925.404 121.168 919.899 115.406 915.935 108.053L914.175 109.003C918.308 116.669 924.066 122.699 931.441 127.076L932.462 125.356ZM915.94 108.062C912.037 100.657 910.071 92.1386 910.071 82.48H908.071C908.071 92.4161 910.095 101.263 914.171 108.994L915.94 108.062ZM910.071 82.48C910.071 72.7063 912.094 64.1642 916.109 56.8238L914.354 55.8642C910.155 63.5425 908.071 72.4244 908.071 82.48H910.071ZM916.11 56.8209C920.133 49.4083 925.667 43.648 932.72 39.519L931.71 37.793C924.332 42.112 918.543 48.1437 914.352 55.8671L916.11 56.8209ZM932.72 39.519C939.765 35.3953 947.888 33.32 957.119 33.32V31.32C947.577 31.32 939.097 33.4687 931.71 37.793L932.72 39.519ZM957.119 33.32C966.528 33.32 974.736 35.4252 981.777 39.6039L982.798 37.884C975.407 33.4975 966.836 31.32 957.119 31.32V33.32ZM981.78 39.6058C988.894 43.7936 994.427 49.5828 998.389 56.9916L1000.15 56.0483C996.02 48.3212 990.23 42.2597 982.795 37.8822L981.78 39.6058ZM998.391 56.9945C1002.35 64.3377 1004.34 72.8235 1004.34 82.48H1006.34C1006.34 72.5418 1004.29 63.721 1000.15 56.0455L998.391 56.9945ZM1004.34 82.48C1004.34 92.1938 1002.32 100.737 998.304 108.139L1000.06 109.093C1004.26 101.359 1006.34 92.4782 1006.34 82.48H1004.34ZM998.303 108.141C994.341 115.492 988.808 121.253 981.692 125.442L982.707 127.166C990.14 122.789 995.93 116.759 1000.06 109.091L998.303 108.141ZM981.694 125.441C974.651 129.564 966.47 131.64 957.119 131.64V133.64C966.776 133.64 975.315 131.492 982.704 127.167L981.694 125.441ZM957.119 111.288C965.051 111.288 971.106 108.608 975.088 103.132L973.471 101.956C969.944 106.805 964.558 109.288 957.119 109.288V111.288ZM975.087 103.134C979.055 97.701 980.999 90.7908 980.999 82.48H978.999C978.999 90.4785 977.131 96.9443 973.472 101.954L975.087 103.134ZM980.999 82.48C980.999 73.8839 979.029 66.9008 974.985 61.6312L973.398 62.8488C977.098 67.6698 978.999 74.1801 978.999 82.48H980.999ZM974.989 61.637C970.948 56.2911 964.931 53.672 957.119 53.672V55.672C964.443 55.672 969.807 58.0982 973.393 62.843L974.989 61.637ZM957.119 53.672C951.75 53.672 947.25 54.8796 943.697 57.3734L944.846 59.0106C947.98 56.811 952.046 55.672 957.119 55.672V53.672ZM943.697 57.3734C940.177 59.8433 937.568 63.2639 935.861 67.5931L937.721 68.3269C939.3 64.3255 941.677 61.234 944.846 59.0106L943.697 57.3734ZM935.857 67.6045C934.22 71.9068 933.415 76.8717 933.415 82.48H935.415C935.415 77.059 936.194 72.3439 937.726 68.3154L935.857 67.6045ZM933.415 82.48C933.415 91.1299 935.354 98.1408 939.337 103.411L940.933 102.205C937.29 97.3846 935.415 90.8434 935.415 82.48H933.415ZM939.345 103.421C943.442 108.697 949.422 111.288 957.119 111.288V109.288C949.915 109.288 944.572 106.892 940.925 102.195L939.345 103.421Z" fill="black"/>
</g>
</svg>
