<svg width="94" height="94" viewBox="0 0 94 94" fill="none" xmlns="http://www.w3.org/2000/svg">
<path fill-rule="evenodd" clip-rule="evenodd" d="M43.2435 86.0533C43.2435 86.7125 43.7412 87.2682 44.399 87.3125C45.0967 87.3594 45.8008 87.3833 46.5104 87.3833C63.6261 87.3833 77.501 73.5083 77.501 56.3927C77.501 39.2771 63.6261 25.4021 46.5104 25.4021C45.8008 25.4021 45.0967 25.426 44.399 25.4729C43.7412 25.5172 43.2435 26.0728 43.2435 26.7321V86.0533Z" fill="url(#paint0_radial_795_516)"/>
<circle cx="77.2952" cy="22.0872" r="9.94435" fill="url(#paint1_radial_795_516)"/>
<path fill-rule="evenodd" clip-rule="evenodd" d="M36.6582 35.6479C36.6563 35.6479 36.6548 35.6463 36.6548 35.6444C36.5905 19.5675 23.7305 6.50894 7.73082 6.12494C7.37427 6.11638 7.08267 6.40627 7.08328 6.76292L7.10123 17.1689C7.10184 17.5241 7.39115 17.8105 7.74608 17.8229C17.3442 18.1594 25.0363 25.9895 25.1515 35.6423C25.1516 35.6454 25.1541 35.6479 25.1572 35.6479C25.1603 35.6479 25.1628 35.6505 25.1628 35.6536V36.1147C25.1628 36.1936 25.1431 36.2707 25.1048 36.3396C24.6148 37.2213 23.644 38.8913 22.2005 41.0318C20.5864 43.4253 19.4603 45.0129 18.7714 45.9599C18.4469 46.406 18.7877 47.0739 19.3393 47.071C20.3039 47.0659 21.9016 47.0646 24.5207 47.0765C24.8751 47.0781 25.1628 47.3659 25.1628 47.7202V87.0515C25.1628 87.4071 25.4511 87.6953 25.8066 87.6953H36.0178C36.3734 87.6953 36.6617 87.4071 36.6617 87.0515V35.6514C36.6617 35.6495 36.6601 35.6479 36.6582 35.6479Z" fill="url(#paint2_radial_795_516)"/>
<defs>
<radialGradient id="paint0_radial_795_516" cx="0" cy="0" r="1" gradientUnits="userSpaceOnUse" gradientTransform="translate(43.1369 49.575) rotate(19.4284) scale(44.0349 59.6959)">
<stop stop-color="#E11515"/>
<stop offset="1" stop-color="#FF4141" stop-opacity="0.4"/>
</radialGradient>
<radialGradient id="paint1_radial_795_516" cx="0" cy="0" r="1" gradientUnits="userSpaceOnUse" gradientTransform="translate(71.7875 27.0406) rotate(-43.7811) scale(21.4021 25.5179)">
<stop stop-color="#00892F"/>
<stop offset="1" stop-color="#18D637" stop-opacity="0.59"/>
</radialGradient>
<radialGradient id="paint2_radial_795_516" cx="0" cy="0" r="1" gradientUnits="userSpaceOnUse" gradientTransform="translate(41.5274 51.1848) rotate(-138.102) scale(92.5535 114.494)">
<stop/>
<stop offset="1" stop-color="#272727" stop-opacity="0.61"/>
</radialGradient>
</defs>
</svg>
