<svg width="1008" height="135" viewBox="0 0 1008 135" fill="none" xmlns="http://www.w3.org/2000/svg">
<g opacity="0.1">
<mask id="path-1-outside-1_825_239" maskUnits="userSpaceOnUse" x="0.76001" y="0.640137" width="1007" height="134" fill="black">
<rect fill="white" x="0.76001" y="0.640137" width="1007" height="134"/>
<path d="M41.712 131V26.6321H1.76001V4.28013H105.6V26.6321H65.648V131H41.712Z"/>
<path d="M184.51 131V86.1201C184.51 83.9495 184.393 81.1921 184.158 77.8481C183.923 74.4455 183.19 71.0428 181.958 67.6401C180.726 64.2375 178.702 61.3921 175.886 59.1041C173.129 56.8161 169.198 55.6721 164.094 55.6721C162.041 55.6721 159.841 55.9948 157.494 56.6401C155.147 57.2855 152.947 58.5468 150.894 60.4241C148.841 62.2428 147.139 64.9415 145.79 68.5201C144.499 72.0988 143.854 76.8508 143.854 82.7761L130.126 76.2641C130.126 68.7548 131.651 61.7148 134.702 55.1441C137.753 48.5735 142.329 43.2641 148.43 39.2161C154.59 35.1681 162.334 33.1441 171.662 33.1441C179.113 33.1441 185.185 34.4055 189.878 36.9281C194.571 39.4508 198.209 42.6481 200.79 46.5201C203.43 50.3921 205.307 54.4401 206.422 58.6641C207.537 62.8295 208.211 66.6428 208.446 70.1041C208.681 73.5655 208.798 76.0881 208.798 77.6721V131H184.51ZM119.566 131V4.28013H140.862V69.4001H143.854V131H119.566Z"/>
<path d="M275.809 133.64C266.07 133.64 257.475 131.557 250.025 127.392C242.633 123.168 236.825 117.389 232.601 110.056C228.435 102.664 226.353 94.2161 226.353 84.7121C226.353 74.3281 228.406 65.2935 232.513 57.6081C236.619 49.9228 242.281 43.9681 249.497 39.7441C256.713 35.4615 265.014 33.3201 274.401 33.3201C284.374 33.3201 292.851 35.6668 299.832 40.3601C306.814 45.0535 311.976 51.6535 315.32 60.1601C318.664 68.6668 319.838 78.6695 318.841 90.1681H295.169V81.3681C295.169 71.6881 293.614 64.7361 290.505 60.5121C287.454 56.2295 282.438 54.0881 275.457 54.0881C267.302 54.0881 261.289 56.5815 257.417 61.5681C253.603 66.4961 251.697 73.8001 251.697 83.4801C251.697 92.3388 253.603 99.2028 257.417 104.072C261.289 108.883 266.95 111.288 274.401 111.288C279.094 111.288 283.113 110.261 286.457 108.208C289.801 106.155 292.352 103.192 294.112 99.3201L318.049 106.184C314.47 114.867 308.809 121.613 301.065 126.424C293.379 131.235 284.961 133.64 275.809 133.64ZM244.305 90.1681V72.3921H307.312V90.1681H244.305Z"/>
<path d="M338.711 131V4.28013H379.719C380.716 4.28013 382.769 4.30947 385.879 4.36814C388.988 4.4268 391.98 4.63213 394.855 4.98413C405.063 6.21614 413.716 9.76546 420.815 15.6321C427.913 21.4988 433.311 28.9495 437.007 37.9841C440.703 47.0188 442.551 56.9041 442.551 67.6401C442.551 78.3761 440.703 88.2615 437.007 97.2961C433.311 106.331 427.913 113.781 420.815 119.648C413.716 125.515 405.063 129.064 394.855 130.296C391.98 130.648 388.988 130.853 385.879 130.912C382.769 130.971 380.716 131 379.719 131H338.711ZM362.999 108.472H379.719C381.303 108.472 383.444 108.443 386.143 108.384C388.841 108.267 391.276 108.003 393.447 107.592C398.961 106.477 403.449 103.896 406.911 99.8481C410.431 95.8001 413.012 90.9308 414.655 85.2401C416.356 79.5495 417.207 73.6828 417.207 67.6401C417.207 61.3041 416.327 55.2908 414.567 49.6001C412.865 43.9095 410.255 39.0988 406.735 35.1681C403.215 31.2375 398.785 28.7441 393.447 27.6881C391.276 27.2188 388.841 26.9548 386.143 26.8961C383.444 26.8375 381.303 26.8081 379.719 26.8081H362.999V108.472Z"/>
<path d="M463.664 131V35.9601H484.784V59.1921L482.496 56.2001C483.728 52.9148 485.37 49.9228 487.424 47.2241C489.477 44.5255 492 42.2961 494.992 40.5361C497.28 39.1281 499.773 38.0428 502.472 37.2801C505.17 36.4588 507.957 35.9601 510.832 35.7841C513.706 35.5495 516.581 35.6081 519.456 35.9601V58.3121C516.816 57.4908 513.736 57.2268 510.216 57.5201C506.754 57.7548 503.616 58.5468 500.8 59.8961C497.984 61.1868 495.608 62.9175 493.672 65.0881C491.736 67.2001 490.269 69.7228 489.272 72.6561C488.274 75.5308 487.776 78.7868 487.776 82.4241V131H463.664Z"/>
<path d="M577.244 133.64C567.682 133.64 559.292 131.499 552.076 127.216C544.86 122.933 539.228 117.037 535.18 109.528C531.191 101.96 529.196 93.2775 529.196 83.4801C529.196 73.5655 531.25 64.8535 535.356 57.3441C539.463 49.7761 545.124 43.8801 552.34 39.6561C559.556 35.4321 567.858 33.3201 577.244 33.3201C586.807 33.3201 595.196 35.4615 602.412 39.7441C609.687 44.0268 615.348 49.9521 619.396 57.5201C623.444 65.0295 625.468 73.6828 625.468 83.4801C625.468 93.3361 623.415 102.048 619.308 109.616C615.26 117.125 609.599 123.021 602.324 127.304C595.108 131.528 586.748 133.64 577.244 133.64ZM577.244 111.288C584.93 111.288 590.65 108.707 594.404 103.544C598.218 98.3228 600.124 91.6348 600.124 83.4801C600.124 75.0321 598.188 68.2855 594.316 63.2401C590.503 58.1948 584.812 55.6721 577.244 55.6721C572.023 55.6721 567.74 56.8455 564.396 59.1921C561.052 61.5388 558.559 64.7948 556.916 68.9601C555.332 73.1255 554.54 77.9655 554.54 83.4801C554.54 91.9868 556.447 98.7628 560.26 103.808C564.132 108.795 569.794 111.288 577.244 111.288Z"/>
<path d="M646.58 22.7601V1.64014H670.516V22.7601H646.58ZM646.58 131V35.9601H670.516V131H646.58Z"/>
<path d="M735.442 133.64C726.701 133.64 719.045 131.44 712.474 127.04C705.903 122.64 700.77 116.656 697.074 109.088C693.437 101.52 691.618 92.9841 691.618 83.4801C691.618 73.8001 693.466 65.2055 697.162 57.6961C700.917 50.1281 706.167 44.1735 712.914 39.8321C719.661 35.4908 727.581 33.3201 736.674 33.3201C745.709 33.3201 753.306 35.5201 759.466 39.9201C765.626 44.3201 770.29 50.3041 773.458 57.8721C776.626 65.4401 778.21 73.9761 778.21 83.4801C778.21 92.9841 776.597 101.52 773.37 109.088C770.202 116.656 765.45 122.64 759.114 127.04C752.778 131.44 744.887 133.64 735.442 133.64ZM739.314 112.344C744.653 112.344 748.906 111.141 752.074 108.736C755.301 106.331 757.618 102.957 759.026 98.6161C760.434 94.2748 761.138 89.2295 761.138 83.4801C761.138 77.7308 760.434 72.6855 759.026 68.3441C757.618 64.0028 755.359 60.6295 752.25 58.2241C749.199 55.8188 745.181 54.6161 740.194 54.6161C734.855 54.6161 730.455 55.9361 726.994 58.5761C723.591 61.1575 721.069 64.6481 719.426 69.0481C717.783 73.3895 716.962 78.2001 716.962 83.4801C716.962 88.8188 717.754 93.6881 719.338 98.0881C720.922 102.429 723.357 105.891 726.642 108.472C729.927 111.053 734.151 112.344 739.314 112.344ZM761.138 131V65.8801H758.146V4.28013H782.258V131H761.138Z"/>
<path d="M810.77 131V107.064H834.706V131H810.77Z"/>
<path d="M865.033 22.7601V1.64014H888.969V22.7601H865.033ZM865.033 131V35.9601H888.969V131H865.033Z"/>
<path d="M958.119 133.64C948.557 133.64 940.167 131.499 932.951 127.216C925.735 122.933 920.103 117.037 916.055 109.528C912.066 101.96 910.071 93.2775 910.071 83.4801C910.071 73.5655 912.125 64.8535 916.231 57.3441C920.338 49.7761 925.999 43.8801 933.215 39.6561C940.431 35.4321 948.733 33.3201 958.119 33.3201C967.682 33.3201 976.071 35.4615 983.287 39.7441C990.562 44.0268 996.223 49.9521 1000.27 57.5201C1004.32 65.0295 1006.34 73.6828 1006.34 83.4801C1006.34 93.3361 1004.29 102.048 1000.18 109.616C996.135 117.125 990.474 123.021 983.199 127.304C975.983 131.528 967.623 133.64 958.119 133.64ZM958.119 111.288C965.805 111.288 971.525 108.707 975.279 103.544C979.093 98.3228 980.999 91.6348 980.999 83.4801C980.999 75.0321 979.063 68.2855 975.191 63.2401C971.378 58.1948 965.687 55.6721 958.119 55.6721C952.898 55.6721 948.615 56.8455 945.271 59.1921C941.927 61.5388 939.434 64.7948 937.791 68.9601C936.207 73.1255 935.415 77.9655 935.415 83.4801C935.415 91.9868 937.322 98.7628 941.135 103.808C945.007 108.795 950.669 111.288 958.119 111.288Z"/>
</mask>
<path d="M41.712 131V26.6321H1.76001V4.28013H105.6V26.6321H65.648V131H41.712Z" stroke="black" stroke-width="2" mask="url(#path-1-outside-1_825_239)"/>
<path d="M184.51 131V86.1201C184.51 83.9495 184.393 81.1921 184.158 77.8481C183.923 74.4455 183.19 71.0428 181.958 67.6401C180.726 64.2375 178.702 61.3921 175.886 59.1041C173.129 56.8161 169.198 55.6721 164.094 55.6721C162.041 55.6721 159.841 55.9948 157.494 56.6401C155.147 57.2855 152.947 58.5468 150.894 60.4241C148.841 62.2428 147.139 64.9415 145.79 68.5201C144.499 72.0988 143.854 76.8508 143.854 82.7761L130.126 76.2641C130.126 68.7548 131.651 61.7148 134.702 55.1441C137.753 48.5735 142.329 43.2641 148.43 39.2161C154.59 35.1681 162.334 33.1441 171.662 33.1441C179.113 33.1441 185.185 34.4055 189.878 36.9281C194.571 39.4508 198.209 42.6481 200.79 46.5201C203.43 50.3921 205.307 54.4401 206.422 58.6641C207.537 62.8295 208.211 66.6428 208.446 70.1041C208.681 73.5655 208.798 76.0881 208.798 77.6721V131H184.51ZM119.566 131V4.28013H140.862V69.4001H143.854V131H119.566Z" stroke="black" stroke-width="2" mask="url(#path-1-outside-1_825_239)"/>
<path d="M275.809 133.64C266.07 133.64 257.475 131.557 250.025 127.392C242.633 123.168 236.825 117.389 232.601 110.056C228.435 102.664 226.353 94.2161 226.353 84.7121C226.353 74.3281 228.406 65.2935 232.513 57.6081C236.619 49.9228 242.281 43.9681 249.497 39.7441C256.713 35.4615 265.014 33.3201 274.401 33.3201C284.374 33.3201 292.851 35.6668 299.832 40.3601C306.814 45.0535 311.976 51.6535 315.32 60.1601C318.664 68.6668 319.838 78.6695 318.841 90.1681H295.169V81.3681C295.169 71.6881 293.614 64.7361 290.505 60.5121C287.454 56.2295 282.438 54.0881 275.457 54.0881C267.302 54.0881 261.289 56.5815 257.417 61.5681C253.603 66.4961 251.697 73.8001 251.697 83.4801C251.697 92.3388 253.603 99.2028 257.417 104.072C261.289 108.883 266.95 111.288 274.401 111.288C279.094 111.288 283.113 110.261 286.457 108.208C289.801 106.155 292.352 103.192 294.112 99.3201L318.049 106.184C314.47 114.867 308.809 121.613 301.065 126.424C293.379 131.235 284.961 133.64 275.809 133.64ZM244.305 90.1681V72.3921H307.312V90.1681H244.305Z" stroke="black" stroke-width="2" mask="url(#path-1-outside-1_825_239)"/>
<path d="M338.711 131V4.28013H379.719C380.716 4.28013 382.769 4.30947 385.879 4.36814C388.988 4.4268 391.98 4.63213 394.855 4.98413C405.063 6.21614 413.716 9.76546 420.815 15.6321C427.913 21.4988 433.311 28.9495 437.007 37.9841C440.703 47.0188 442.551 56.9041 442.551 67.6401C442.551 78.3761 440.703 88.2615 437.007 97.2961C433.311 106.331 427.913 113.781 420.815 119.648C413.716 125.515 405.063 129.064 394.855 130.296C391.98 130.648 388.988 130.853 385.879 130.912C382.769 130.971 380.716 131 379.719 131H338.711ZM362.999 108.472H379.719C381.303 108.472 383.444 108.443 386.143 108.384C388.841 108.267 391.276 108.003 393.447 107.592C398.961 106.477 403.449 103.896 406.911 99.8481C410.431 95.8001 413.012 90.9308 414.655 85.2401C416.356 79.5495 417.207 73.6828 417.207 67.6401C417.207 61.3041 416.327 55.2908 414.567 49.6001C412.865 43.9095 410.255 39.0988 406.735 35.1681C403.215 31.2375 398.785 28.7441 393.447 27.6881C391.276 27.2188 388.841 26.9548 386.143 26.8961C383.444 26.8375 381.303 26.8081 379.719 26.8081H362.999V108.472Z" stroke="black" stroke-width="2" mask="url(#path-1-outside-1_825_239)"/>
<path d="M463.664 131V35.9601H484.784V59.1921L482.496 56.2001C483.728 52.9148 485.37 49.9228 487.424 47.2241C489.477 44.5255 492 42.2961 494.992 40.5361C497.28 39.1281 499.773 38.0428 502.472 37.2801C505.17 36.4588 507.957 35.9601 510.832 35.7841C513.706 35.5495 516.581 35.6081 519.456 35.9601V58.3121C516.816 57.4908 513.736 57.2268 510.216 57.5201C506.754 57.7548 503.616 58.5468 500.8 59.8961C497.984 61.1868 495.608 62.9175 493.672 65.0881C491.736 67.2001 490.269 69.7228 489.272 72.6561C488.274 75.5308 487.776 78.7868 487.776 82.4241V131H463.664Z" stroke="black" stroke-width="2" mask="url(#path-1-outside-1_825_239)"/>
<path d="M577.244 133.64C567.682 133.64 559.292 131.499 552.076 127.216C544.86 122.933 539.228 117.037 535.18 109.528C531.191 101.96 529.196 93.2775 529.196 83.4801C529.196 73.5655 531.25 64.8535 535.356 57.3441C539.463 49.7761 545.124 43.8801 552.34 39.6561C559.556 35.4321 567.858 33.3201 577.244 33.3201C586.807 33.3201 595.196 35.4615 602.412 39.7441C609.687 44.0268 615.348 49.9521 619.396 57.5201C623.444 65.0295 625.468 73.6828 625.468 83.4801C625.468 93.3361 623.415 102.048 619.308 109.616C615.26 117.125 609.599 123.021 602.324 127.304C595.108 131.528 586.748 133.64 577.244 133.64ZM577.244 111.288C584.93 111.288 590.65 108.707 594.404 103.544C598.218 98.3228 600.124 91.6348 600.124 83.4801C600.124 75.0321 598.188 68.2855 594.316 63.2401C590.503 58.1948 584.812 55.6721 577.244 55.6721C572.023 55.6721 567.74 56.8455 564.396 59.1921C561.052 61.5388 558.559 64.7948 556.916 68.9601C555.332 73.1255 554.54 77.9655 554.54 83.4801C554.54 91.9868 556.447 98.7628 560.26 103.808C564.132 108.795 569.794 111.288 577.244 111.288Z" stroke="black" stroke-width="2" mask="url(#path-1-outside-1_825_239)"/>
<path d="M646.58 22.7601V1.64014H670.516V22.7601H646.58ZM646.58 131V35.9601H670.516V131H646.58Z" stroke="black" stroke-width="2" mask="url(#path-1-outside-1_825_239)"/>
<path d="M735.442 133.64C726.701 133.64 719.045 131.44 712.474 127.04C705.903 122.64 700.77 116.656 697.074 109.088C693.437 101.52 691.618 92.9841 691.618 83.4801C691.618 73.8001 693.466 65.2055 697.162 57.6961C700.917 50.1281 706.167 44.1735 712.914 39.8321C719.661 35.4908 727.581 33.3201 736.674 33.3201C745.709 33.3201 753.306 35.5201 759.466 39.9201C765.626 44.3201 770.29 50.3041 773.458 57.8721C776.626 65.4401 778.21 73.9761 778.21 83.4801C778.21 92.9841 776.597 101.52 773.37 109.088C770.202 116.656 765.45 122.64 759.114 127.04C752.778 131.44 744.887 133.64 735.442 133.64ZM739.314 112.344C744.653 112.344 748.906 111.141 752.074 108.736C755.301 106.331 757.618 102.957 759.026 98.6161C760.434 94.2748 761.138 89.2295 761.138 83.4801C761.138 77.7308 760.434 72.6855 759.026 68.3441C757.618 64.0028 755.359 60.6295 752.25 58.2241C749.199 55.8188 745.181 54.6161 740.194 54.6161C734.855 54.6161 730.455 55.9361 726.994 58.5761C723.591 61.1575 721.069 64.6481 719.426 69.0481C717.783 73.3895 716.962 78.2001 716.962 83.4801C716.962 88.8188 717.754 93.6881 719.338 98.0881C720.922 102.429 723.357 105.891 726.642 108.472C729.927 111.053 734.151 112.344 739.314 112.344ZM761.138 131V65.8801H758.146V4.28013H782.258V131H761.138Z" stroke="black" stroke-width="2" mask="url(#path-1-outside-1_825_239)"/>
<path d="M810.77 131V107.064H834.706V131H810.77Z" stroke="black" stroke-width="2" mask="url(#path-1-outside-1_825_239)"/>
<path d="M865.033 22.7601V1.64014H888.969V22.7601H865.033ZM865.033 131V35.9601H888.969V131H865.033Z" stroke="black" stroke-width="2" mask="url(#path-1-outside-1_825_239)"/>
<path d="M958.119 133.64C948.557 133.64 940.167 131.499 932.951 127.216C925.735 122.933 920.103 117.037 916.055 109.528C912.066 101.96 910.071 93.2775 910.071 83.4801C910.071 73.5655 912.125 64.8535 916.231 57.3441C920.338 49.7761 925.999 43.8801 933.215 39.6561C940.431 35.4321 948.733 33.3201 958.119 33.3201C967.682 33.3201 976.071 35.4615 983.287 39.7441C990.562 44.0268 996.223 49.9521 1000.27 57.5201C1004.32 65.0295 1006.34 73.6828 1006.34 83.4801C1006.34 93.3361 1004.29 102.048 1000.18 109.616C996.135 117.125 990.474 123.021 983.199 127.304C975.983 131.528 967.623 133.64 958.119 133.64ZM958.119 111.288C965.805 111.288 971.525 108.707 975.279 103.544C979.093 98.3228 980.999 91.6348 980.999 83.4801C980.999 75.0321 979.063 68.2855 975.191 63.2401C971.378 58.1948 965.687 55.6721 958.119 55.6721C952.898 55.6721 948.615 56.8455 945.271 59.1921C941.927 61.5388 939.434 64.7948 937.791 68.9601C936.207 73.1255 935.415 77.9655 935.415 83.4801C935.415 91.9868 937.322 98.7628 941.135 103.808C945.007 108.795 950.669 111.288 958.119 111.288Z" stroke="black" stroke-width="2" mask="url(#path-1-outside-1_825_239)"/>
</g>
</svg>
