<svg xmlns="http://www.w3.org/2000/svg" width="22.862" height="22.863" viewBox="0 0 22.862 22.863">
  <path id="dribble" d="M2386.429,2375a11.431,11.431,0,1,0,11.433,11.429A11.431,11.431,0,0,0,2386.429,2375Zm0,1.985h0a9.406,9.406,0,0,1,5.759,1.978,11.58,11.58,0,0,1-4.752,3.5,44.008,44.008,0,0,0-3.323-5.179A9.349,9.349,0,0,1,2386.429,2376.985Zm-4.261,1.027h0a43.222,43.222,0,0,1,3.371,5.127,30.26,30.26,0,0,1-8.272,1.055A9.479,9.479,0,0,1,2382.168,2378.012Zm-5.183,8.417h0c0-.081.012-.161.016-.242a32.015,32.015,0,0,0,9.476-1.26c.222.451.435.906.637,1.365a14.688,14.688,0,0,0-7.938,6.17A9.382,9.382,0,0,1,2376.985,2386.429Zm9.444,9.444h0a9.4,9.4,0,0,1-5.8-2,12.849,12.849,0,0,1,7.237-5.743,37.191,37.191,0,0,1,1.949,7.1A9.317,9.317,0,0,1,2386.429,2395.873Zm5.243-1.595h0a39.635,39.635,0,0,0-1.828-6.569,18.941,18.941,0,0,1,5.9.186A9.458,9.458,0,0,1,2391.673,2394.279Zm-2.594-8.449h0c-.23-.536-.471-1.071-.729-1.6a13.5,13.5,0,0,0,5.284-3.886,9.388,9.388,0,0,1,2.211,5.558A20.367,20.367,0,0,0,2389.079,2385.829Z" transform="translate(-2375 -2375)"/>
</svg>
