<svg id="instagram" xmlns="http://www.w3.org/2000/svg" width="21.785" height="21.786" viewBox="0 0 21.785 21.786">
  <path id="Path_286" data-name="Path 286" d="M21.022,16.7a5.622,5.622,0,1,0,5.622,5.622A5.633,5.633,0,0,0,21.022,16.7Zm0,9.224a3.6,3.6,0,1,1,3.6-3.6A3.618,3.618,0,0,1,21.022,25.924Z" transform="translate(-10.129 -11.473)" />
  <circle id="Ellipse_360" data-name="Ellipse 360" cx="1.274" cy="1.274" r="1.274" transform="translate(15.461 3.821)" />
  <path id="Path_287" data-name="Path 287" d="M23.429,6.6a6.255,6.255,0,0,0-4.612-1.8H9.769A6.017,6.017,0,0,0,3.4,11.169v9a6.32,6.32,0,0,0,1.845,4.7,6.41,6.41,0,0,0,4.568,1.713h8.96a6.486,6.486,0,0,0,4.612-1.713,6.288,6.288,0,0,0,1.8-4.656V11.169A6.3,6.3,0,0,0,23.429,6.6Zm-.176,13.616a4.292,4.292,0,0,1-1.274,3.206,4.54,4.54,0,0,1-3.206,1.142H9.813a4.54,4.54,0,0,1-3.206-1.142,4.415,4.415,0,0,1-1.186-3.25v-9A4.379,4.379,0,0,1,6.606,7.962,4.467,4.467,0,0,1,9.813,6.82h9.048a4.379,4.379,0,0,1,3.206,1.186,4.532,4.532,0,0,1,1.186,3.162v9.048Z" transform="translate(-3.4 -4.8)" />
</svg>
